# xmcd
#
# Track frame offsets:
#	150
#	19758
#	33491
#	49695
#	64110
#	82131
#	95361
#	113263
#	128262
#	143424
#	163651
#	174121
#	190559
#	207010
#	229135
#	246926
#	259672
#
# Disc length: 3623 seconds
#
# Revision: 7
# Processed by: cddbd v1.5.2PL0 Copyright (c) Steve Scherf et al.
# Submitted via: EZCDAudioConverter 8.0.2.1
#
DISCID=cc0e2511
DTITLE=SOM LIVRE - PRA SEMPRE SERTANEJO - 2001 - VOL.3 [CD 0156-2) SOM LIVRE
DYEAR=2001
DGENRE=Country
TTITLE0=MILIONÁRIO and JOSÉ RICO - SONHEI COM VOCÊ (BY GILMAR SINISTRO)
TTITLE1=ALAN and ALADIM - LIGUEI PRA DIZER QUE TE AMO (BY GILMAR SINISTRO)
TTITLE2=TRIO PARADA DURA - PASSA LÁ (BY GILMAR SINISTRO)
TTITLE3=JOÃO PAULO and DANIEL - FOGO DO AMOR (BY GILMAR SINISTRO)
TTITLE4=ZEZÉ DI CAMARGO and LUCIANO - PÃO DE MEL (BY GILMAR SINISTRO)
TTITLE5=CHRYSTIAN and RALF - QUEBRADAS DA NOITE (BY GILMAR SINISTRO)
TTITLE6=RICK and RENNER - FIM DE SEMANA (BY GILMAR SINISTRO)
TTITLE7=JOÃO PAULO and DANIEL - EU ME AMARREI (BY GILMAR SINISTRO)
TTITLE8=JOÃO PEDRO and CRISTIANO - VIDA CIGANA (BY GILMAR SINISTRO)
TTITLE9=CARLOS CESAR and CRISTIANO  - LUA E FLOR (BY GILMAR SINISTRO)
TTITLE10=IRÍDIO and IRINEU - BICA D'AGUA (BY GILMAR SINISTRO)
TTITLE11=RIONEGRO and SOLIMÕES - A GENTE SE ENTREGA (BY GILMAR SINISTRO)
TTITLE12=ALMIR SATER - UM VIOLEIRO TOCA (BY GILMAR SINISTRO)
TTITLE13=CHITÃOZINHOS and XORORÓ  - EVIDIÊNCIAS (BY GILMAR SINISTRO)
TTITLE14=SULA MIRANDA - CAMINHONEIRO DO AMOR (BY GILMAR SINISTRO)
TTITLE15=RIONEGRO and SOLIMÕES - BATE O PÉ (BY GILMAR SINISTRO)
TTITLE16=GIANCARLOS and TEDECHINI - FORRÓ SUOR E FRIGOTE (BY GILMAR SINISTRO)
EXTD=
EXTT0=
EXTT1=
EXTT2=
EXTT3=
EXTT4=
EXTT5=
EXTT6=
EXTT7=
EXTT8=
EXTT9=
EXTT10=
EXTT11=
EXTT12=
EXTT13=
EXTT14=
EXTT15=
EXTT16=
PLAYORDER=
